# xmcd CD database file
#
# Track frame offsets:
#	150
#	65525
#	125032
#	172196
#	237211
#
# Disc length: 3629 seconds
#
# Revision: 0
# Processed by: cddbd v1.5.1PL2 Copyright (c) Steve Scherf et al.
# Submitted via: CDex 1.51
#
DISCID=460e2b05
DTITLE=Hemi-Sync Ric Borgia - Reflections
DYEAR=2005
DGENRE=New Age
TTITLE0=01
TTITLE1=02
TTITLE2=03
TTITLE3=04
TTITLE4=05
EXTD=YEAR: 2005
EXTT0=
EXTT1=
EXTT2=
EXTT3=
EXTT4=
PLAYORDER=
